# xmcd
#
# Track frame offsets: 
#        150
#        13251
#        28987
#        44922
#        61046
#        82760
#        103113
#        119703
#        142991
#        161118
#        181297
#        198600
#        213043
#        226932
#        243722
#
# Disc length: 3501 seconds
#
# Revision: 0
# Processed by: cddbd v1.5.2PL0 Copyright (c) Steve Scherf et al.
# Submitted via: ExactAudioCopy v1.3
#
DISCID=d70dab0f
DTITLE=Pistol Pete - Pistol Pete's Killer Bash
DYEAR=2015
DGENRE=Blues
TTITLE0=Got A One Way Ticket
TTITLE1=She
TTITLE2=Moving To Seattle
TTITLE3=Midwest Woman
TTITLE4=I'm A Stranger
TTITLE5=Standing Alone
TTITLE6=Tears Of Sadness
TTITLE7=I Hate Hollywood
TTITLE8=Lucho Land
TTITLE9=Last Hand
TTITLE10=Down On Me
TTITLE11=Cystal Blue
TTITLE12=Eugene Oregon
TTITLE13=She My Baby
TTITLE14=I'm Sorry
EXTD=
EXTT0=
EXTT1=
EXTT2=
EXTT3=
EXTT4=
EXTT5=
EXTT6=
EXTT7=
EXTT8=
EXTT9=
EXTT10=
EXTT11=
EXTT12=
EXTT13=
EXTT14=
PLAYORDER=
